<?xml version="1.0" standalone="no"?>
<!DOCTYPE svg PUBLIC "-//W3C//DTD SVG 1.1//EN" "http://www.w3.org/Graphics/SVG/1.1/DTD/svg11.dtd" >
<svg xmlns="http://www.w3.org/2000/svg">
<metadata>
Created by FontForge 20120731 at Sun Jun 12 17:48:47 2016
 By admin
</metadata>
<defs>
<font id="iconfont" horiz-adv-x="1024" >
  <font-face 
    font-family="iconfont"
    font-weight="500"
    font-stretch="normal"
    units-per-em="1024"
    panose-1="2 0 6 3 0 0 0 0 0 0"
    ascent="896"
    descent="-128"
    x-height="792"
    bbox="0 -212 1026 896"
    underline-thickness="50"
    underline-position="-100"
    unicode-range="U+0078-E6D7"
  />
<missing-glyph horiz-adv-x="374" 
d="M34 0v682h272v-682h-272zM68 34h204v614h-204v-614z" />
    <glyph glyph-name=".notdef" horiz-adv-x="374" 
d="M34 0v682h272v-682h-272zM68 34h204v614h-204v-614z" />
    <glyph glyph-name=".null" horiz-adv-x="0" 
 />
    <glyph glyph-name="nonmarkingreturn" horiz-adv-x="341" 
 />
    <glyph glyph-name="x" unicode="x" horiz-adv-x="1001" 
d="M281 543q-27 -1 -53 -1h-83q-18 0 -36.5 -6t-32.5 -18.5t-23 -32t-9 -45.5v-76h912v41q0 16 -0.5 30t-0.5 18q0 13 -5 29t-17 29.5t-31.5 22.5t-49.5 9h-133v-97h-438v97zM955 310v-52q0 -23 0.5 -52t0.5 -58t-10.5 -47.5t-26 -30t-33 -16t-31.5 -4.5q-14 -1 -29.5 -0.5
t-29.5 0.5h-32l-45 128h-439l-44 -128h-29h-34q-20 0 -45 1q-25 0 -41 9.5t-25.5 23t-13.5 29.5t-4 30v167h911zM163 247q-12 0 -21 -8.5t-9 -21.5t9 -21.5t21 -8.5q13 0 22 8.5t9 21.5t-9 21.5t-22 8.5zM316 123q-8 -26 -14 -48q-5 -19 -10.5 -37t-7.5 -25t-3 -15t1 -14.5
t9.5 -10.5t21.5 -4h37h67h81h80h64h36q23 0 34 12t2 38q-5 13 -9.5 30.5t-9.5 34.5q-5 19 -11 39h-368zM336 498v228q0 11 2.5 23t10 21.5t20.5 15.5t34 6h188q31 0 51.5 -14.5t20.5 -52.5v-227h-327z" />
    <glyph glyph-name="uni3529" unicode="&#x3529;" 
d="M941 455l-66 178l-1 1q-18 45 -43 64t-41 19h-5h-549q-25 0 -50 -22t-38 -58q-75 -187 -84 -241q-1 -3 0 -7v-5v-10q0 -42 24.5 -76.5t62.5 -48.5v-260q0 -39 28.5 -67.5t68.5 -28.5h530q40 0 68.5 28.5t28.5 67.5v261q38 14 61.5 48t23.5 76v5q3 30 -19 76zM778 -56
h-530q-19 0 -32 13.5t-13 31.5v253q61 2 94 40q7 7 12 16q3 -5 8 -10q39 -46 89 -46q55 0 91 29q8 6 15 14q7 -8 15 -14q36 -29 91 -29q49 0 88 39q5 5 10 12q4 -6 9 -11q34 -38 98 -40v-253q0 -18 -13 -31.5t-32 -13.5zM909 378v-4q0 -34 -23.5 -57.5t-56.5 -23.5
q-46 0 -66 22q-18 21 -16 51q1 10 -5.5 18.5t-16.5 9.5t-18.5 -5.5t-9.5 -16.5q-4 -30 -27 -54.5t-52 -24.5q-33 0 -57 16t-24 49q0 10 -7 17.5t-18 7.5t-18.5 -7.5t-7.5 -17.5q0 -33 -23.5 -49t-56.5 -16q-26 0 -51 29q-24 29 -29 63q-1 11 -9.5 17t-19 5t-17 -9.5
t-4.5 -18.5q4 -39 -18 -63q-20 -23 -63 -23q-33 0 -56.5 24t-23.5 57v3q0 3 1 4q0 3 -1 6v4q11 52 80 228h1q6 16 15 27.5t15 15.5t10 4h551q23 -11 40 -51l66 -179q1 -1 1 -2q18 -35 15 -50q-1 -3 0 -6z" />
    <glyph glyph-name="uniE606" unicode="&#xe606;" 
d="M670 559l354 -54l-256 -262l61 -371l-317 175l-316 -175l60 371l-256 262l354 54l158 337z" />
    <glyph glyph-name="uniE60A" unicode="&#xe60a;" 
d="M217 135l544 544l46 -46l-544 -544zM761 89l-544 544l46 46l544 -544z" />
    <glyph glyph-name="uniE60B" unicode="&#xe60b;" 
d="M844 643h-474q-12 0 -20.5 -8.5t-8.5 -20.5v-47q0 -12 8.5 -20.5t20.5 -8.5h474q12 0 20.5 8.5t8.5 20.5v47q0 12 -8.5 20.5t-20.5 8.5zM844 437h-474q-12 0 -20.5 -8.5t-8.5 -20.5v-46q0 -12 8.5 -20.5t20.5 -8.5h474q12 0 20.5 8.5t8.5 20.5v46q0 12 -8.5 20.5
t-20.5 8.5zM844 232h-474q-12 0 -20.5 -8.5t-8.5 -20.5v-47q0 -12 8.5 -20.5t20.5 -8.5h474q12 0 20.5 8.5t8.5 20.5v47q0 12 -8.5 20.5t-20.5 8.5zM241 643h-62q-12 0 -20.5 -8.5t-8.5 -20.5v-47q0 -12 8.5 -20.5t20.5 -8.5h62q12 0 20.5 8.5t8.5 20.5v47q0 12 -8.5 20.5
t-20.5 8.5zM241 437h-62q-12 0 -20.5 -8.5t-8.5 -20.5v-46q0 -12 8.5 -20.5t20.5 -8.5h62q12 0 20.5 8.5t8.5 20.5v46q0 12 -8.5 20.5t-20.5 8.5zM241 232h-62q-12 0 -20.5 -8.5t-8.5 -20.5v-47q0 -12 8.5 -20.5t20.5 -8.5h62q12 0 20.5 8.5t8.5 20.5v47q0 12 -8.5 20.5
t-20.5 8.5z" />
    <glyph glyph-name="uniE60C" unicode="&#xe60c;" 
d="M493 137l-451 450q-7 7 -7 18t7.5 19t18.5 8t19 -8l432 -432l432 432q8 8 19 8t18.5 -8t7.5 -19t-7 -18l-450 -450q-8 -8 -20 -8t-19 8z" />
    <glyph glyph-name="uniE60D" unicode="&#xe60d;" 
d="M744 362l-450 -450q-7 -8 -18 -8t-19 8t-8 19t8 18l432 432l-432 432q-8 8 -8 19t8 19t19 8t18 -8l450 -450q8 -8 8 -20q0 -11 -8 -19z" />
    <glyph glyph-name="uniE60E" unicode="&#xe60e;" 
d="M258 403l450 451q8 7 19 7t19 -7.5t8 -18.5t-8 -19l-432 -432l432 -432q8 -8 8 -19t-8 -18.5t-19 -7.5t-19 7l-450 450q-8 8 -7 20q-1 12 7 19z" />
    <glyph glyph-name="uniE610" unicode="&#xe610;" 
d="M493 626l-451 -450q-7 -8 -7 -19t7.5 -18.5t18.5 -7.5t19 8l432 432l432 -432q8 -8 19 -8t18.5 7.5t7.5 18.5t-7 19l-450 450q-8 8 -20 8t-19 -8z" />
    <glyph glyph-name="uniE612" unicode="&#xe612;" 
d="M631 21q-22 0 -35.5 15t-36.5 31t-43 16t-43 -15.5t-36 -30.5q-14 -15 -35 -15q-10 0 -18 4l-1 1l-93 51l-1 1q-13 9 -17 24.5t2 29.5q9 17 9 38q0 40 -29 69t-69 29h-4q-12 0 -20.5 9.5t-11.5 25.5q-8 43 -8 74t8 75q3 16 12 25.5t20 9.5h4q40 0 69 29t29 69q0 22 -9 38
q-6 14 -1.5 29.5t16.5 24.5h1l98 54l1 1q8 3 18 3q21 0 35 -14q14 -15 36.5 -29.5t41.5 -14.5t41.5 14.5t35.5 28.5q14 14 35 14q10 0 19 -4h1l94 -53h1q13 -9 17 -24.5t-2 -29.5q-9 -17 -9 -38q0 -40 29 -69t69 -29h4q11 0 20 -9.5t12 -25.5q8 -43 8 -74.5t-8 -74.5
q-3 -16 -12 -25.5t-20 -9.5h-4q-40 0 -69 -29t-29 -69q0 -17 9 -38q6 -14 1.5 -29.5t-16.5 -24.5l-1 -1l-96 -53h-1q-8 -4 -18 -4v0zM628 67q1 -1 3 -1l90 50q-12 28 -12 55q0 57 39 98t96 44q7 39 7 65q0 27 -7 65q-57 3 -96 44.5t-39 98.5q0 27 12 55l-88 49l-1 1
q-2 0 -3 -1q-13 -14 -33 -28q-41 -29 -76 -29q-36 0 -77 30q-19 13 -33 28q-1 1 -3 1h-1l-91 -51q12 -28 12 -55q0 -57 -39 -98.5t-96 -44.5q-7 -37 -7 -65q0 -27 7 -65q57 -3 96 -44t39 -98q0 -27 -12 -56l87 -48q2 0 3 1q14 15 33 29q42 31 78 31q37 0 79 -32
q19 -14 33 -29v0zM516 248q-54 0 -92 38.5t-38 92.5t38 92.5t92 38.5t92.5 -38.5t38.5 -92.5t-38.5 -92.5t-92.5 -38.5v0zM516 465q-35 0 -60.5 -25t-25.5 -61t25.5 -61.5t61 -25.5t61 25.5t25.5 61.5t-25.5 61t-61.5 25v0zM516 465z" />
    <glyph glyph-name="uniE613" unicode="&#xe613;" 
d="M358 436zM311 435.5q0 19.5 14 33t33 13.5t33 -13.5t14 -33t-14 -33t-33 -13.5t-33 13.5t-14 33zM598 407q0 12 9 21t21 9t21 -9t9 -21q0 -7 5 -12t12 -5t12 5t5 12q0 26 -19 45t-45 19t-44.5 -19t-18.5 -45q0 -7 4.5 -12t11.5 -5t12 5t5 12zM509 151q-69 0 -127 -12.5
t-90.5 -28.5t-58 -36.5t-32.5 -29.5t-11 -15q-8 -18 10 -31q10 -5 17.5 -4t12.5 5l4 4q15 24 56 48q84 49 219 49t219 -49q41 -24 56 -48q1 -2 4 -4t12 -5t17 3q11 5 11 32q-4 6 -11 15t-32.5 29.5t-58 36.5t-90.5 28.5t-127 12.5zM891 626h-84q-25 44 -61 81
q-49 49 -113 76q-66 28 -138.5 28t-138.5 -28q-64 -27 -113.5 -76.5t-76.5 -112.5q-28 -67 -28 -139q0 -89 42 -167t115 -128q7 -4 15 -4q13 0 21 11q6 9 4 19t-11 16q-63 43 -99 110t-36 143q0 63 25 120h561q24 -57 24 -120q0 -75 -35.5 -142t-97.5 -110q-9 -6 -11 -16
t4 -19t16.5 -11t19.5 4q73 50 114 128t41 166q0 62 -21 120h62q11 0 18.5 7.5t7.5 18t-7.5 18t-18.5 7.5zM242 626q16 24 37 45q89 89 215 89t216 -89q20 -21 37 -45h-505z" />
    <glyph glyph-name="uniE616" unicode="&#xe616;" 
d="M690 618q-50 50 -115.5 76.5t-132 26.5t-132 -26.5t-116 -77t-77 -116t-26.5 -132t26.5 -132t76.5 -115.5q93 -93 224 -102t234 69l203 -203q6 -6 15 -6t15 6l41 41q6 6 6 15t-6 15l-203 203q78 103 69 234t-102 224zM640.5 171.5q-82.5 -82.5 -198.5 -82.5t-198 82.5
t-82 198.5t82 198t198 82t198.5 -82t82.5 -198t-82.5 -198.5z" />
    <glyph glyph-name="uniE618" unicode="&#xe618;" 
d="M749 178l37 -303l-274 130l-274 -130l37 303l-207 222l298 58l146 267l146 -267l298 -58zM631 420l-119 222l-119 -222l-242 -47l168 -185l-30 -251l223 108l223 -108l-30 251l168 185z" />
    <glyph glyph-name="uniE619" unicode="&#xe619;" horiz-adv-x="1027" 
d="M515 811q-104 0 -199 -40.5t-163.5 -109t-109 -163t-40.5 -198.5t40.5 -199t109 -163t163.5 -108.5t199 -40.5t198.5 40.5t163 108.5t109 163t40.5 199t-40.5 198.5t-109 163t-163 109t-198.5 40.5zM515 -143q-90 0 -172.5 35t-141.5 94.5t-94 141.5t-35 172t35 172
t94 141.5t141.5 94.5t172.5 35t172 -35t141.5 -94.5t94.5 -141.5t35 -172t-35 -172t-94.5 -141.5t-141.5 -94.5t-172 -35zM505 361q-32 0 -53 -18.5t-21 -46.5q0 -26 21 -46q21 -19 53 -19t52 18q21 19 21 47t-21 47q-21 18 -52 18zM313 361q-31 0 -52 -18.5t-21 -46.5
q0 -26 21 -46q21 -19 52.5 -19t52.5 18q20 19 20 47t-21 47q-20 18 -52 18zM697 361q-32 0 -53 -18.5t-21 -46.5q0 -26 21 -46q21 -19 52.5 -19t52.5 18q20 19 20 47q0 29 -20 47q-21 18 -52 18z" />
    <glyph glyph-name="uniE626" unicode="&#xe626;" 
d="M668 608h-353q-9 0 -16 -6.5t-7 -16t7 -16.5t16 -7h353q10 0 16.5 7t6.5 16.5t-6.5 16t-16.5 6.5zM668 447h-353q-9 0 -16 -6.5t-7 -16t7 -16.5t16 -7h353q10 0 16.5 7t6.5 16.5t-6.5 16t-16.5 6.5zM515 269h-200q-9 0 -16 -7t-7 -16.5t7 -16.5t16 -7h200q10 0 16.5 7
t6.5 16.5t-6.5 16.5t-16.5 7zM804 786h-584q-45 0 -76.5 -32.5t-31.5 -78.5v-605q0 -46 31.5 -78.5t76.5 -32.5h584q45 0 76.5 32.5t31.5 78.5v605q0 46 -31.5 78.5t-76.5 32.5zM866 70q0 -27 -18 -46t-44 -19h-584q-26 0 -44 19t-18 46v605q0 27 18 46t44 19h584
q26 0 44 -19t18 -46v-605z" />
    <glyph glyph-name="uniE62D" unicode="&#xe62d;" 
d="M106 153q-6 0 -9.5 4t-3.5 9v181q0 5 3.5 8.5t9.5 3.5h198q5 0 8.5 -3.5t3.5 -8.5v-181q0 -5 -3.5 -9t-8.5 -4h-198zM415 153q-6 0 -9.5 4t-3.5 9v588q0 5 3.5 9t9.5 4h197q6 0 9.5 -4t3.5 -9v-588q0 -5 -3.5 -9t-9.5 -4h-197zM720 153q-6 0 -9.5 4t-3.5 9v399q0 5 3.5 9
t9.5 4h198q5 0 8.5 -4t3.5 -9v-399q0 -5 -3.5 -9t-8.5 -4h-198zM930 14q0 -5 -3.5 -9t-8.5 -4h-812q-6 0 -9.5 4t-3.5 9v40q0 6 3.5 9.5t9.5 3.5h812q5 0 8.5 -3.5t3.5 -9.5v-40z" />
    <glyph glyph-name="uniE638" unicode="&#xe638;" 
d="M161 -86q-40 0 -68 31.5t-28 76.5v548q0 47 28 80.5t68 33.5h454q40 0 68 -33.5t28 -80.5v-58q0 -12 -8 -20.5t-20 -8.5t-20.5 8.5t-8.5 20.5v58q0 20 -11.5 34.5t-27.5 14.5h-454q-16 0 -27.5 -14.5t-11.5 -34.5v-542q0 -20 11.5 -34t27.5 -14h454q16 0 27.5 14t11.5 34
v59q0 12 8.5 20t20.5 8t20 -8t8 -20v-59q0 -47 -28 -80.5t-68 -33.5h-454zM773 94q-12 0 -20 9t-8 21.5t8 20.5l109 117v1h-476q-11 0 -19.5 8.5t-8.5 21t8.5 21.5t19.5 9h476v0l-109 117q-8 9 -8 21.5t8 21.5q8 8 20 8t20 -8l157 -168q8 -9 8 -22t-8 -22l-157 -168
q-8 -9 -20 -9z" />
    <glyph glyph-name="uniE643" unicode="&#xe643;" 
d="M873 896h-726q-35 0 -60 -25t-25 -60v-854q0 -35 25 -60t60 -25h726q35 0 60 25t25 60v854q0 35 -25 60t-60 25zM809 107h-598q-8 0 -14.5 6.5t-6.5 14.5q0 9 6.5 15t14.5 6h598q8 0 14.5 -6t6.5 -15q0 -10 -6 -15.5t-15 -5.5zM809 363h-598q-8 0 -14.5 6.5t-6.5 14.5
t6.5 14.5t14.5 6.5h598q8 0 14.5 -6.5t6.5 -14.5t-6 -14.5t-15 -6.5zM809 619h-598q-8 0 -14.5 6.5t-6.5 14.5t6.5 14.5t14.5 6.5h598q8 0 14.5 -6.5t6.5 -14.5t-6 -14.5t-15 -6.5z" />
    <glyph glyph-name="uniE669" unicode="&#xe669;" 
d="M522 886q-108 0 -180.5 -76.5t-72.5 -190.5v-94h-8q-57 0 -97 -41.5t-40 -99.5v-360q0 -59 40 -100.5t97 -41.5h525q56 0 96.5 41.5t40.5 100.5v360q0 58 -40.5 99.5t-96.5 41.5h-5q-1 0 -4 1v93q0 114 -73 190.5t-182 76.5zM522 844q93 0 153.5 -63.5t60.5 -161.5v-93
h-425v93q0 98 60 161.5t151 63.5zM881 384v-360q0 -42 -28 -71t-67 -29h-525q-39 0 -67 29t-28 71v360q0 41 28 70t67 29h50v2h425v-2h50q39 0 67 -29t28 -70zM881 384zM519 328q-25 0 -43 -18.5t-18 -44.5q0 -36 31 -54v-102q0 -13 8.5 -22t21 -9t21.5 9t9 22v102
q31 18 31 54q-1 26 -18.5 44.5t-42.5 18.5zM519 328z" />
    <glyph glyph-name="uniE67E" unicode="&#xe67e;" 
d="M952 421q-8 -1 -16 -6t-8 -12q0 -43 -6 -80q-38 -155 -169 -245q-139 -95 -302 -67q-173 30 -262 170l123 -14q12 -1 14 23q1 8 -3.5 13.5t-12.5 6.5l-171 18q-16 1 -20 -14l-41 -164q-2 -7 2 -13.5t11 -8.5q2 -1 12 -1q15 0 18 14l33 110q99 -151 291 -184q39 -7 79 -7
q140 0 257 80q74 51 121.5 124.5t63.5 161.5q7 38 7 77q0 7 -6.5 12t-14.5 6zM950 421h2h2h-4zM98 384q8 1 16 6.5t8 12.5q0 43 6 80q38 154 169 244q139 96 302 67q173 -30 262 -170l-123 14q-12 1 -14 -23q-1 -7 3.5 -13t12.5 -7l171 -17q16 -2 20 13l41 164q2 8 -2 14.5
t-11 8.5h-12q-15 0 -18 -14l-33 -110q-99 152 -291 185q-39 7 -79 7q-140 0 -257 -80q-74 -51 -121.5 -125t-63.5 -161q-7 -39 -7 -77q0 -7 6.5 -12.5t14.5 -6.5zM100 384h-2h-2h4zM524 150q10 0 17 6.5t7 16.5v108h149q10 0 17 7t7 16.5t-7 16t-17 6.5h-149v92h149
q10 0 17 6.5t7 16.5t-7 16.5t-17 6.5h-100l73 126q5 8 2 17.5t-11.5 14t-18.5 2t-14 -10.5l-86 -149h-31l-86 149q-5 8 -14.5 10.5t-18 -2t-11.5 -14t2 -17.5l73 -126h-105q-10 0 -17.5 -6.5t-7.5 -16.5t7.5 -16.5t17.5 -6.5h148v-92h-148q-10 0 -17.5 -6.5t-7.5 -16
t7.5 -16.5t17.5 -7h148v-108q0 -10 7.5 -16.5t17.5 -6.5z" />
    <glyph glyph-name="uniE681" unicode="&#xe681;" 
d="M1019 383q0 -104 -40.5 -198t-108.5 -162t-162 -108.5t-197.5 -40.5t-198 40.5t-162.5 108.5t-108 162t-40 197.5t40 198t108 162.5t162.5 108t198 40t197.5 -40t162 -108t108.5 -162.5t40.5 -197.5zM510 812q-116 0 -215 -57t-156 -156t-57 -215t57 -215t156 -156
t215 -57t215 57t156 156t57 215t-57 215t-156 156t-215 57zM706 523l-136 -143l136 -136l-63 -62l-140 131l-140 -131l-67 62l138 142l-138 137l74 63l133 -141l140 146z" />
    <glyph glyph-name="uniE68C" unicode="&#xe68c;" 
d="M643 243q76 37 122 109.5t46 159.5q0 124 -87.5 212t-211.5 88t-211.5 -88t-87.5 -212q0 -87 46 -159.5t122 -109.5q-140 -43 -229 -161.5t-89 -268.5q0 -10 7.5 -17.5t18 -7.5t17.5 7.5t7 17.5q0 109 53.5 201t145.5 145.5t200 53.5t200 -53.5t145.5 -145.5t53.5 -201
q0 -10 7 -17.5t17.5 -7.5t18 7.5t7.5 17.5q0 150 -89 268.5t-229 161.5zM263 512.5q0 103.5 73 176.5t176 73t176 -73t73 -176.5t-73 -177t-176 -73.5t-176 73.5t-73 177z" />
    <glyph glyph-name="uniE6A9" unicode="&#xe6a9;" 
d="M510.5 -145q-90.5 0 -173.5 35.5t-142.5 95t-95 142.5t-35.5 173.5t35.5 173.5t95 142.5t142.5 95t173.5 35.5t173.5 -35.5t142.5 -95t95 -142.5t35.5 -173.5t-35.5 -173.5t-95 -142.5t-142.5 -95t-173.5 -35.5zM510.5 709q-110.5 0 -204.5 -54.5t-148.5 -148.5
t-54.5 -204.5t54.5 -204.5t148.5 -148.5t204.5 -54.5t204.5 54.5t148.5 148.5t54.5 204.5t-54.5 204.5t-148.5 148.5t-204.5 54.5zM491 263q-8 0 -13.5 5.5t-5.5 13.5v330q0 8 5.5 14t13.5 6t14 -6t6 -14v-330q0 -8 -6 -13.5t-14 -5.5zM763 263h-272q-8 0 -13.5 5.5
t-5.5 13.5t5.5 13.5t13.5 5.5h272q8 0 13.5 -5.5t5.5 -13.5t-5.5 -13.5t-13.5 -5.5z" />
    <glyph glyph-name="uniE6D0" unicode="&#xe6d0;" 
d="M947 377q-5 36 -30 63t-65 40q-34 11 -113 29q34 49 52 100t18 91.5t-12 72.5q-26 58 -84 58q-21 0 -38 -7t-26.5 -16t-18.5 -26t-13 -27t-9 -28q-4 -14 -7 -21q-10 -31 -57 -76.5t-113 -82.5q-70 -38 -140 -94q-15 -12 -15 -31v-380q0 -20 16 -32q40 -29 157 -51.5
t199 -22.5q58 0 83 15q55 31 148 290q38 28 55.5 63.5t12.5 72.5v0zM140 490q-27 0 -45.5 -18.5t-18.5 -45.5v-387q0 -27 18.5 -45.5t45 -18.5t45.5 18.5t19 45.5v387q0 27 -19 45.5t-45 18.5v0zM140 490z" />
    <glyph glyph-name="uniE6D1" unicode="&#xe6d1;" 
d="M512 530q-30 69 -78.5 113.5t-100.5 59t-106 2.5t-96.5 -47t-69.5 -97.5t-28 -142.5q0 -38 9 -71.5t27.5 -60.5t37.5 -48.5t49 -43t52 -35.5t55.5 -34t50.5 -30q75 -50 131.5 -112t67.5 -97q8 32 66.5 96t130.5 114q21 15 59 38.5t64 40t58.5 44t52.5 54t33.5 65
t13.5 82.5q-1 80 -28.5 142t-70.5 95.5t-97.5 44.5t-106.5 -4t-100 -58t-76 -110z" />
    <glyph glyph-name="uniE6D7" unicode="&#xe6d7;" 
d="M512 747q-97 0 -179.5 -48t-130.5 -130.5t-48 -179.5q0 -71 39 -166.5t94 -175.5t118 -136.5t107 -56.5t107 56.5t118 136.5t94 175.5t39 166.5q0 97 -48 179.5t-130.5 130.5t-179.5 48zM512 209q-74 0 -127 53t-53 127t53 127t127 53t127 -53t53 -127t-53 -127t-127 -53
zM512 209z" />
  </font>
</defs>
</svg>
