<?xml version="1.0" encoding="utf-8"?>
<!-- Generator: Adobe Illustrator 18.1.0, SVG Export Plug-In . SVG Version: 6.00 Build 0)  -->
<svg version="1.1" xmlns="http://www.w3.org/2000/svg" xmlns:xlink="http://www.w3.org/1999/xlink" x="0px" y="0px"
	 viewBox="0 0 130 156" enable-background="new 0 0 130 156" xml:space="preserve">
<g id="图层_2" display="none">
	<rect y="0" display="inline" fill="#E6E6E6" width="130" height="156"/>
</g>
<g id="图层_3">
	
		<radialGradient id="SVGID_1_" cx="65" cy="152.1" r="8.9222" gradientTransform="matrix(1 0 0 0.4 0 91.26)" gradientUnits="userSpaceOnUse">
		<stop  offset="0" style="stop-color:#242424"/>
		<stop  offset="1" style="stop-color:#787878;stop-opacity:0"/>
	</radialGradient>
	<ellipse fill="url(#SVGID_1_)" cx="65" cy="152.1" rx="12" ry="3.9"/>
	<g>
		<path fill="#FFFFFF" d="M109,1H21C10,1,1,10,1,21v88c0,11,9,20,20,20h31.4L65,150.8L77.6,129H109c11,0,20-9,20-20V21
			C129,10,120,1,109,1z"/>
		<path fill="#939393" d="M109,1c11,0,20,9,20,20v88c0,11-9,20-20,20H77.6L65,150.8L52.4,129H21c-11,0-20-9-20-20V21C1,10,10,1,21,1
			H109 M109,0H21C9.4,0,0,9.4,0,21v88c0,11.6,9.4,21,21,21h30.8l12.3,21.3l0.9,1.5l0.9-1.5L78.2,130H109c11.6,0,21-9.4,21-21V21
			C130,9.4,120.6,0,109,0L109,0z"/>
	</g>
</g>
<g id="图层_4" display="none">
	<path display="inline" fill="#FFFFFF" d="M109,2H21C10,2,1,11,1,22v88c0,11,9,20,20,20h31.4L65,151.8L77.6,130H109c11,0,20-9,20-20
		V22C129,11,120,2,109,2z"/>
</g>
</svg>
