<?xml version="1.0" encoding="utf-8"?>
<!-- Generator: Adobe Illustrator 19.1.0, SVG Export Plug-In . SVG Version: 6.00 Build 0)  -->
<svg version="1.1" id="图层_1" xmlns="http://www.w3.org/2000/svg" xmlns:xlink="http://www.w3.org/1999/xlink" x="0px" y="0px"
	 viewBox="-265 382.7 65 76" style="enable-background:new -265 382.7 65 76;" xml:space="preserve">
<style type="text/css">
	.st0{opacity:0.2;enable-background:new    ;}
	.st1{fill:#FFFFFF;stroke:#CCCCCC;}
</style>
<path class="st0" d="M-232.5,454.3c3.3,0,6,1,6,2.2c0,1.2-2.7,2.2-6,2.2s-6-1-6-2.2C-238.5,455.3-235.8,454.3-232.5,454.3z"/>
<path class="st1" d="M-204.5,450.4h-22.1l-3.6,5.3c-1.2,1.1-3.3,1.1-4.5,0l-3.6-5.3h-22.1c-2.2,0-4-1.8-4-4v-59.2c0-2.2,1.8-4,4-4
	h56c2.2,0,4,1.8,4,4v59.2C-200.5,448.6-202.3,450.4-204.5,450.4z"/>
</svg>
